Coordinates
version=1
nRows=17
nColumns=24
inDegrees=yes

Units are S.I. units (second, meters, Newtons, ...)
Angles are in degrees.

endheader
time	pelvis_tilt	pelvis_list	pelvis_rotation	pelvis_tx	pelvis_ty	pelvis_tz	hip_flexion_r	hip_adduction_r	hip_rotation_r	knee_angle_r	ankle_angle_r	subtalar_angle_r	mtp_angle_r	hip_flexion_l	hip_adduction_l	hip_rotation_l	knee_angle_l	ankle_angle_l	subtalar_angle_l	mtp_angle_l	lumbar_extension	lumbar_bending	lumbar_rotation
      1.29150000	      6.09454168	      3.25884612	      0.59024951	      0.17173953	      1.01453527	      0.30150996	      9.90558033	     -3.03283060	     -0.67434801	    -67.38510273	     -7.23917179	    -15.67607517	     -0.98148811	      1.52475303	      8.09376637	      2.49303671	    -10.94008465	     -0.06695865	    -11.20388319	      0.92516400	     -7.97020405	     -1.49483321	      2.49151122
      1.29566667	      6.20759943	      3.16807984	      0.65931411	      0.17683071	      1.01534790	      0.30119027	     10.32697887	     -2.91003132	     -0.61559881	    -67.24485519	     -6.48738331	    -15.98556160	     -1.29044544	      0.88732081	      8.00615446	      2.68366367	    -10.58899172	      0.02140879	    -11.26471997	      0.86150533	     -8.09317957	     -1.38075886	      2.35226869
      1.29983333	      6.21607962	      3.06371228	      0.72945050	      0.18184517	      1.01596294	      0.30088628	     10.87157765	     -2.76183558	     -0.53314705	    -67.09059027	     -5.62147411	    -16.02036662	     -5.71163548	      0.39831001	      7.90676653	      2.89624275	    -10.30020439	      0.10583213	    -11.37327512	     -0.12229040	     -8.11668774	     -1.24990800	      2.28972978
      1.30400000	      6.31454347	      2.94232960	      0.82385917	      0.18687048	      1.01669352	      0.30057119	     11.28008012	     -2.60341547	     -0.49919640	    -66.83379981	     -4.89837429	    -16.29714120	     -5.72218894	     -0.17300539	      7.77437217	      3.04804851	    -10.04564271	      0.29083987	    -11.27156830	     -0.11502558	     -8.23947842	     -1.10149469	      2.22841500
      1.30816667	      6.34970919	      2.80999155	      0.91629001	      0.19190692	      1.01730762	      0.30025752	     11.74634868	     -2.43494209	     -0.46239480	    -66.52648451	     -4.20018486	    -16.49127306	     -5.72656759	     -0.66761312	      7.63190985	      3.20277441	     -9.80417371	      0.43330428	    -11.23588019	     -0.11318845	     -8.27420226	     -0.93430244	      2.18152912
      1.31233333	      6.42395430	      2.70139085	      0.99604726	      0.19688953	      1.01791838	      0.29995063	     12.16796278	     -2.29521505	     -0.41725506	    -66.18638649	     -3.49862931	    -16.72913887	     -5.74090658	     -1.20901556	      7.51583587	      3.37348121	     -9.54528177	      0.57383824	    -11.22732861	     -0.11592073	     -8.38405521	     -0.77646835	      2.10407205
      1.31650000	      6.46942212	      2.57576692	      1.08883707	      0.20189060	      1.01847132	      0.29964781	     12.59644737	     -2.13705452	     -0.38646597	    -65.77583820	     -2.84065358	    -16.93209414	     -5.75473990	     -1.71044991	      7.37775692	      3.54213876	     -9.30399703	      0.71362223	    -11.22600404	     -0.12075441	     -8.43462562	     -0.62565272	      2.03880505
      1.32066667	      6.56299653	      2.47442109	      1.16775410	      0.20686977	      1.01905031	      0.29936878	     12.96154516	     -2.00437476	     -0.34476380	    -65.32005302	     -2.20615544	    -17.20309605	     -5.79864698	     -2.27985918	      7.26573462	      3.73477192	     -9.02694214	      0.83804710	    -11.27282937	     -0.14007104	     -8.55552587	     -0.51224410	      1.91987405
      1.32483333	      6.58963542	      2.33793801	      1.26700202	      0.21184382	      1.01951563	      0.29905946	     13.38230710	     -1.84140553	     -0.33153992	    -64.80442600	     -1.60391788	    -17.36767436	     -5.81874547	     -2.74455919	      7.11290529	      3.90236012	     -8.81039818	      0.97918248	    -11.26823354	     -0.15025832	     -8.59393158	     -0.32055660	      1.87354409
      1.32900000	      6.64764182	      2.22443606	      1.35772739	      0.21680434	      1.01997511	      0.29878021	     13.75439238	     -1.70027712	     -0.30719597	    -64.24425932	     -0.99521131	    -17.57254635	     -5.84747207	     -3.24700581	      6.98216785	      4.06954006	     -8.58412207	      1.12981772	    -11.27846834	     -0.16527360	     -8.66667252	     -0.18091711	      1.80360979
      1.33316667	      6.74788778	      2.12448034	      1.43716051	      0.22176538	      1.02046880	      0.29851235	     14.06310626	     -1.57613868	     -0.28128712	    -63.62684489	     -0.45850720	    -17.82300085	     -5.92127014	     -3.81816962	      6.86498140	      4.25588543	     -8.30853646	      1.25306016	    -11.32994024	     -0.20514330	     -8.79130349	     -0.05931853	      1.68169072
      1.33733333	      6.77380336	      1.99551362	      1.53664546	      0.22670500	      1.02082728	      0.29823238	     14.43790541	     -1.42492156	     -0.27671790	    -62.95907542	      0.07149535	    -17.97082392	     -5.95352899	     -4.26712644	      6.71334943	      4.41089578	     -8.11166142	      1.40534609	    -11.32626831	     -0.22300161	     -8.83605248	      0.11349344	      1.64222409
      1.34150000	      6.87024563	      1.90248352	      1.61317252	      0.23165403	      1.02123654	      0.29798888	     14.72007115	     -1.30979207	     -0.25520688	    -62.24729356	      0.56464517	    -18.21181315	     -6.03450645	     -4.82268967	      6.59758620	      4.57262382	     -7.85386604	      1.54864378	    -11.35394521	     -0.26802768	     -8.95654304	      0.22580489	      1.53791564
      1.34566667	      6.88371679	      1.79685291	      1.70832509	      0.23657375	      1.02149000	      0.29773459	     15.07948806	     -1.18466700	     -0.24634094	    -61.49051005	      1.04191460	    -18.35978578	     -6.08271872	     -5.25180086	      6.46732497	      4.72301224	     -7.66473967	      1.70103740	    -11.35656466	     -0.29494909	     -8.98138162	      0.35863650	      1.49282007
      1.34983333	      6.90774441	      1.69756435	      1.79067668	      0.24149669	      1.02171943	      0.29749740	     15.41686922	     -1.07085741	     -0.24138915	    -60.69631726	      1.48749477	    -18.51819741	     -6.12454682	     -5.70761920	      6.34191372	      4.86602271	     -7.44164845	      1.86348842	    -11.34575262	     -0.31746954	     -9.03785749	      0.48737876	      1.43957155
      1.35400000	      7.01787856	      1.61325960	      1.86969587	      0.24642927	      1.02205123	      0.29728313	     15.62611274	     -0.96427165	     -0.22836947	    -59.82641382	      1.87068128	    -18.76351593	     -6.23268143	     -6.27054168	      6.22763341	      5.01858558	     -7.19409005	      1.99950753	    -11.37588426	     -0.37722298	     -9.17010760	      0.59068592	      1.32428636
      1.35816667	      7.06151181	      1.51601844	      1.95771236	      0.25135429	      1.02226080	      0.29706673	     15.89474102	     -0.84834235	     -0.22833970	    -58.91651419	      2.24158810	    -18.95626224	     -6.34812437	     -6.74538524	      6.09840428	      5.16324390	     -6.97487873	      2.15249010	    -11.38204028	     -0.43988362	     -9.23389628	      0.71040169	      1.24765453
